<?xml version="1.0" encoding="UTF-8"?>
<svg id="Capa_2" data-name="Capa 2" xmlns="http://www.w3.org/2000/svg" xmlns:xlink="http://www.w3.org/1999/xlink" viewBox="0 0 393.12 266.85">
  <defs>
    <style>
      .cls-1 {
        stroke-width: .72px;
      }

      .cls-1, .cls-2, .cls-3 {
        fill: none;
      }

      .cls-1, .cls-3, .cls-4, .cls-5 {
        stroke: #1d1d1b;
      }

      .cls-6 {
        fill: url(#_10_lpp_10_);
      }

      .cls-6, .cls-2, .cls-7, .cls-8 {
        stroke-width: 0px;
      }

      .cls-9 {
        font-family: Helvetica, Helvetica;
        font-size: 12px;
      }

      .cls-9, .cls-5, .cls-8 {
        fill: #1d1d1b;
      }

      .cls-3, .cls-4, .cls-5 {
        stroke-miterlimit: 10;
      }

      .cls-7, .cls-4 {
        fill: #fff;
      }

      .cls-10 {
        letter-spacing: -.11em;
      }
    </style>
    <pattern id="_10_lpp_10_" data-name="10 lpp 10%" x="0" y="0" width="72" height="72" patternTransform="translate(2862.55 -8145.64) rotate(-45)" patternUnits="userSpaceOnUse" viewBox="0 0 72 72">
      <g>
        <rect class="cls-2" width="72" height="72"/>
        <g>
          <line class="cls-1" x1="71.75" y1="68.4" x2="144.25" y2="68.4"/>
          <line class="cls-1" x1="71.75" y1="54" x2="144.25" y2="54"/>
          <line class="cls-1" x1="71.75" y1="39.6" x2="144.25" y2="39.6"/>
          <line class="cls-1" x1="71.75" y1="25.2" x2="144.25" y2="25.2"/>
          <line class="cls-1" x1="71.75" y1="10.8" x2="144.25" y2="10.8"/>
          <line class="cls-1" x1="71.75" y1="61.2" x2="144.25" y2="61.2"/>
          <line class="cls-1" x1="71.75" y1="46.8" x2="144.25" y2="46.8"/>
          <line class="cls-1" x1="71.75" y1="32.4" x2="144.25" y2="32.4"/>
          <line class="cls-1" x1="71.75" y1="18" x2="144.25" y2="18"/>
          <line class="cls-1" x1="71.75" y1="3.6" x2="144.25" y2="3.6"/>
        </g>
        <g>
          <line class="cls-1" x1="-.25" y1="68.4" x2="72.25" y2="68.4"/>
          <line class="cls-1" x1="-.25" y1="54" x2="72.25" y2="54"/>
          <line class="cls-1" x1="-.25" y1="39.6" x2="72.25" y2="39.6"/>
          <line class="cls-1" x1="-.25" y1="25.2" x2="72.25" y2="25.2"/>
          <line class="cls-1" x1="-.25" y1="10.8" x2="72.25" y2="10.8"/>
          <line class="cls-1" x1="-.25" y1="61.2" x2="72.25" y2="61.2"/>
          <line class="cls-1" x1="-.25" y1="46.8" x2="72.25" y2="46.8"/>
          <line class="cls-1" x1="-.25" y1="32.4" x2="72.25" y2="32.4"/>
          <line class="cls-1" x1="-.25" y1="18" x2="72.25" y2="18"/>
          <line class="cls-1" x1="-.25" y1="3.6" x2="72.25" y2="3.6"/>
        </g>
        <g>
          <line class="cls-1" x1="-72.25" y1="68.4" x2=".25" y2="68.4"/>
          <line class="cls-1" x1="-72.25" y1="54" x2=".25" y2="54"/>
          <line class="cls-1" x1="-72.25" y1="39.6" x2=".25" y2="39.6"/>
          <line class="cls-1" x1="-72.25" y1="25.2" x2=".25" y2="25.2"/>
          <line class="cls-1" x1="-72.25" y1="10.8" x2=".25" y2="10.8"/>
          <line class="cls-1" x1="-72.25" y1="61.2" x2=".25" y2="61.2"/>
          <line class="cls-1" x1="-72.25" y1="46.8" x2=".25" y2="46.8"/>
          <line class="cls-1" x1="-72.25" y1="32.4" x2=".25" y2="32.4"/>
          <line class="cls-1" x1="-72.25" y1="18" x2=".25" y2="18"/>
          <line class="cls-1" x1="-72.25" y1="3.6" x2=".25" y2="3.6"/>
        </g>
      </g>
    </pattern>
  </defs>
  <g id="Capa_1-2" data-name="Capa 1">
    <g>
      <polygon class="cls-3" points="279.04 134.65 279.04 176.99 126.36 176.99 126.36 134.65 102.96 134.65 102.96 195.84 302.96 195.84 302.96 134.65 279.04 134.65"/>
      <polygon class="cls-6" points="279.04 134.65 279.04 176.99 126.36 176.99 126.36 134.65 102.96 134.65 102.96 195.84 302.96 195.84 302.96 134.65 279.04 134.65"/>
    </g>
    <g>
      <polygon class="cls-3" points="61.19 92.46 61.19 153.65 75.7 153.65 75.7 111.31 329.71 111.31 329.71 153.65 342.48 153.65 342.48 92.46 61.19 92.46"/>
      <polygon class="cls-7" points="61.19 92.46 61.19 153.65 75.7 153.65 75.7 111.31 329.71 111.31 329.71 153.65 342.48 153.65 342.48 92.46 61.19 92.46"/>
      <polygon class="cls-3" points="61.19 92.46 61.19 153.65 75.7 153.65 75.7 111.31 329.71 111.31 329.71 153.65 342.48 153.65 342.48 92.46 61.19 92.46"/>
    </g>
    <rect class="cls-5" x="129.47" y="154.99" width="146.47" height="19.4"/>
    <line class="cls-4" x1="202.7" y1="174.39" x2="202.7" y2="227.54"/>
    <rect class="cls-4" x="102.7" y="227.54" width="200" height="38.81"/>
    <text class="cls-9" transform="translate(160.39 251.71)"><tspan x="0" y="0">Thermobalance</tspan></text>
    <line class="cls-4" x1="202.7" y1="39.31" x2="202.7" y2="92.46"/>
    <rect class="cls-4" x="103.83" y=".5" width="200" height="38.81"/>
    <text class="cls-9" transform="translate(132.63 23.04)"><tspan x="0" y="0">Atmosphere control (inert)</tspan></text>
    <g>
      <g>
        <path class="cls-3" d="M35.67,204.81c2.27-2.99,9.97-11.72,32.93-19.39,12.18-4.07,24.4-6.43,33.13-7.77"/>
        <path class="cls-8" d="M107.7,176.81c-2.66,1.45-5.89,3.73-7.78,5.93l1.02-4.95-2.38-4.46c2.43,1.57,6.18,2.85,9.14,3.48Z"/>
      </g>
      <text class="cls-9" transform="translate(13.66 214.87)"><tspan x="0" y="0">Furnace</tspan></text>
    </g>
    <g>
      <g>
        <path class="cls-3" d="M346.85,195.84c-2.27-2.99-9.97-11.72-32.93-19.39-12.18-4.07-24.4-6.43-33.13-7.77"/>
        <path class="cls-8" d="M274.82,167.84c2.96-.64,6.71-1.91,9.14-3.49l-2.38,4.46,1.02,4.95c-1.89-2.2-5.12-4.48-7.78-5.93Z"/>
      </g>
      <text class="cls-9" transform="translate(315.18 206.26)"><tspan class="cls-10" x="0" y="0">T</tspan><tspan x="6" y="0">emperature</tspan><tspan x="15.67" y="14.4">sensor</tspan></text>
    </g>
    <path class="cls-4" d="M212.7,135.31c0,5.52-4.48,10-10,10s-10-4.48-10-10h-63.23v19.4h146.47v-19.4h-63.23Z"/>
    <g>
      <g>
        <path class="cls-3" d="M44.05,77c5.69.22,23.21,2.19,52.68,23.94,16.88,12.45,31.32,26.7,40.55,36.48"/>
        <path class="cls-8" d="M141.39,141.84c-2.71-1.34-6.44-2.67-9.32-2.96l4.64-2.01,2.28-4.51c.11,2.9,1.22,6.69,2.4,9.48Z"/>
      </g>
      <text class="cls-9" transform="translate(.01 74.53) rotate(-.11) skewX(-.22)"><tspan x="0" y="0">Sample holder</tspan></text>
    </g>
  </g>
</svg>